# xmcd
#
# Track frame offsets: 
#        150
#        12765
#        31790
#        55725
#        72520
#        89840
#        107797
#        126292
#        142030
#        159090
#        171422
#        182552
#        195342
#        212857
#        238357
#        245157
#        260320
#        271507
#        291600
#        307175
#
# Disc length: 4354 seconds
#
# Revision: 2
# Processed by: cddbd v1.5PL3 Copyright (c) Steve Scherf et al.
# Submitted via: ExactAudioCopy v0.95a3
#
DISCID=30110014
DTITLE=Harry Arnold - Harry Arnold Big Band  Vol 2
DYEAR=1965
DGENRE=Jazz
TTITLE0=Zdravstvujte
TTITLE1=Något snabbare blues
TTITLE2=Satin Doll
TTITLE3=Isn't It Romantic
TTITLE4=Ramblin'
TTITLE5=Ugglor i Stora Mossen
TTITLE6=Old Folks
TTITLE7=Unison Blues
TTITLE8=Rockin' In Rhythm
TTITLE9=3-2-1-Go
TTITLE10=It Dont Mean A Thing
TTITLE11=I Sista Minuten
TTITLE12=Just In Time
TTITLE13=Promenad
TTITLE14=Språngmarsch
TTITLE15=Vad nu då
TTITLE16=Ain't Misbehavin'
TTITLE17=Groteskerier
TTITLE18=Hastig Blues för Radiobandet
TTITLE19=Gånglåt från Roslags Näsby
EXTD=
EXTT0=
EXTT1=
EXTT2=
EXTT3=
EXTT4=
EXTT5=
EXTT6=
EXTT7=
EXTT8=
EXTT9=
EXTT10=
EXTT11=
EXTT12=
EXTT13=
EXTT14=
EXTT15=
EXTT16=
EXTT17=
EXTT18=
EXTT19=
PLAYORDER=
